<svg xmlns="http://www.w3.org/2000/svg" xmlns:xlink="http://www.w3.org/1999/xlink" version="1.1" x="0px" y="0px" viewBox="0 0 35 35" enable-background="new 0 0 35 35" xml:space="preserve"><g><path d="M29.5,13.5234375c0-6.6300049-5.3699951-12-12-12s-12,5.3699951-12,12   c0,6.2749634,4.8123169,11.4136963,10.9483643,11.9468994l-1.8590088,1.6888428   c-0.1908569,0.1734009-0.0556641,0.4698486,0.2142334,0.4698486h1.6964722v4.8475342c0,0.5522461,0.4472656,1,1,1s1-0.4477539,1-1   v-4.8475342h1.6963501c0.2699585,0,0.4051514-0.2964478,0.2142334-0.4698486l-1.8590088-1.6888428   C24.6876831,24.9371338,29.5,19.7984009,29.5,13.5234375z M17.5,5.5234375c-4.4099731,0-8,3.5899658-8,8   c0,0.5499878-0.4499512,1-1,1c-0.5499878,0-1-0.4500122-1-1c0-5.5100098,4.4900513-10,10-10c0.5500488,0,1,0.4500122,1,1   S18.0500488,5.5234375,17.5,5.5234375z"/></g></svg>