<svg xmlns="http://www.w3.org/2000/svg" xmlns:xlink="http://www.w3.org/1999/xlink" version="1.1" x="0px" y="0px" viewBox="0 0 100 100" style="enable-background:new 0 0 100 100;" xml:space="preserve"><g><g id="false"><path d="M50,83.4v11c0,0.6,0.7,0.8,1.1,0.4l15.1-15.1c0.3-0.3,0.3-0.8,0-1.1L51.1,63.6C50.7,63.2,50,63.5,50,64v11    c-13.8,0-25-11.3-25-25c0-3.2,0.7-6.4,1.8-9.2c0.6-1.5,0.2-3.3-0.9-4.5l0,0c-2.1-2.1-5.8-1.4-6.9,1.5c-1.5,3.8-2.4,7.8-2.4,12.2    C16.6,68.3,31.7,83.4,50,83.4z M50,25c13.8,0,25,11.3,25,25c0,3.2-0.7,6.4-1.8,9.2c-0.6,1.5-0.2,3.3,0.9,4.5l0,0    c2.1,2.1,5.8,1.4,6.9-1.5c1.5-3.8,2.4-7.8,2.4-12.2c0-18.3-15-33.4-33.4-33.4v-11c0-0.6-0.7-0.8-1.1-0.4L33.9,20.3    c-0.3,0.3-0.3,0.8,0,1.1l15.1,15.1c0.4,0.4,1.1,0.1,1.1-0.4V25z"/></g></g></svg>