<svg xmlns="http://www.w3.org/2000/svg" data-name="8" viewBox="0 0 80 80" x="0px" y="0px"><path data-name="Path 2093" d="M40,75A35,35,0,1,0,5,40,35,35,0,0,0,40,75Zm0,5A40,40,0,1,0,0,40,40,40,0,0,0,40,80Z" fill-rule="evenodd"/><path data-name="Path 2094" d="M5.285,9.835A2.5,2.5,0,0,1,8.7,10.75a17.508,17.508,0,0,0,30.32,0,2.5,2.5,0,1,1,4.33,2.5,22.508,22.508,0,0,1-38.98,0,2.5,2.5,0,0,1,.915-3.415Z" transform="translate(16.14 38)" fill-rule="evenodd"/><path data-name="Path 2095" d="M15,12.5c0,4.14-2.24,7.5-5,7.5s-5-3.36-5-7.5S7.24,5,10,5,15,8.36,15,12.5Zm20,0c0,4.14-2.24,7.5-5,7.5s-5-3.36-5-7.5S27.24,5,30,5,35,8.36,35,12.5Z" transform="translate(20 20)"/></svg>